<svg width="512" height="512" viewBox="0 0 512 512" fill="none" xmlns="http://www.w3.org/2000/svg">
<rect width="512" height="512" fill="white"/>
<path d="M424.248 398.867L412.862 387.285L406.192 393.792L408.47 402.804L424.248 398.9V398.867ZM445.2 482.739L441.263 498.518C443.987 499.196 446.839 499.158 449.543 498.408C452.247 497.657 454.712 496.22 456.696 494.236C458.681 492.251 460.118 489.787 460.868 487.083C461.619 484.378 461.657 481.526 460.978 478.803L445.2 482.707V482.739ZM315.067 450.205L303.55 438.688L283.249 459.022L311.13 465.984L315.067 450.205ZM315.88 449.392L327.364 460.909C329.738 458.544 331.324 455.504 331.904 452.204C332.485 448.904 332.032 445.505 330.608 442.472C329.184 439.438 326.858 436.919 323.949 435.258C321.039 433.597 317.687 432.874 314.351 433.19L315.88 449.392ZM233.733 11V92.3343H266.267V11H233.733ZM298.8 76.0675H201.2V108.601H298.8V76.0675ZM494 271.27C494 219.499 473.434 169.848 436.827 133.241C400.22 96.6334 350.57 76.0675 298.8 76.0675V108.601C320.162 108.601 341.314 112.809 361.05 120.984C380.785 129.158 398.718 141.141 413.823 156.246C428.928 171.351 440.909 189.283 449.084 209.019C457.259 228.755 461.466 249.908 461.466 271.27H494ZM435.635 410.482C454.147 392.329 468.845 370.661 478.868 346.749C488.891 322.837 494.035 297.164 494 271.237H461.466C461.503 292.846 457.218 314.244 448.866 334.173C440.513 354.102 428.261 372.16 412.829 387.285L435.635 410.482ZM461.011 478.803L439.994 394.898L408.437 402.771L429.389 486.643L460.946 478.77L461.011 478.803ZM311.13 465.984L441.263 498.518L449.136 466.96L319.003 434.427L311.13 465.984ZM304.363 437.908L303.55 438.688L326.583 461.69L327.364 460.909L304.363 437.908ZM298.8 466.472C305.079 466.472 311.293 466.147 317.409 465.594L314.351 433.19C309.182 433.685 303.992 433.935 298.8 433.939V466.472ZM201.2 466.472H298.8V433.939H201.2V466.472ZM6 271.27C6 323.041 26.5656 372.691 63.1727 409.299C99.7798 445.906 149.43 466.472 201.2 466.472V433.939C179.838 433.939 158.686 429.731 138.95 421.556C119.214 413.381 101.282 401.399 86.1773 386.294C55.6714 355.788 38.5333 314.412 38.5333 271.27H6ZM201.2 76.0675C149.43 76.0675 99.7798 96.6334 63.1727 133.241C26.5656 169.848 6 219.499 6 271.27H38.5333C38.5333 228.127 55.6714 186.752 86.1773 156.246C116.683 125.739 158.058 108.601 201.2 108.601V76.0675ZM250 271.27C237.057 271.27 224.645 266.128 215.493 256.977C206.341 247.825 201.2 235.412 201.2 222.469H168.667C168.667 244.04 177.236 264.728 192.489 279.981C207.742 295.234 228.429 303.804 250 303.804V271.27ZM298.8 222.469C298.8 235.412 293.658 247.825 284.507 256.977C275.355 266.128 262.942 271.27 250 271.27V303.804C271.571 303.804 292.258 295.234 307.511 279.981C322.764 264.728 331.333 244.04 331.333 222.469H298.8ZM250 173.669C262.942 173.669 275.355 178.81 284.507 187.962C293.658 197.114 298.8 209.527 298.8 222.469H331.333C331.333 200.898 322.764 180.21 307.511 164.957C292.258 149.704 271.571 141.135 250 141.135V173.669ZM250 141.135C228.429 141.135 207.742 149.704 192.489 164.957C177.236 180.21 168.667 200.898 168.667 222.469H201.2C201.2 209.527 206.341 197.114 215.493 187.962C224.645 178.81 237.057 173.669 250 173.669V141.135ZM250 401.405C284.615 401.405 316.433 389.367 341.516 369.294L321.15 343.918C301.63 359.534 276.937 368.871 250 368.871V401.405ZM158.484 369.294C183.534 389.367 215.417 401.405 250 401.405V368.871C224.13 368.919 199.023 360.114 178.85 343.918L158.484 369.294Z" fill="#0DA64A"/>
<path d="M430.248 399.867L418.862 388.285L412.192 394.792L414.47 403.804L430.248 399.9V399.867ZM451.2 483.739L447.263 499.518C449.987 500.196 452.839 500.158 455.543 499.408C458.247 498.657 460.712 497.22 462.696 495.236C464.681 493.251 466.118 490.787 466.868 488.083C467.619 485.378 467.657 482.526 466.978 479.803L451.2 483.707V483.739ZM321.067 451.205L309.55 439.688L289.249 460.022L317.13 466.984L321.067 451.205ZM321.88 450.392L333.364 461.909C335.738 459.544 337.324 456.504 337.904 453.204C338.485 449.904 338.032 446.505 336.608 443.472C335.184 440.438 332.858 437.919 329.949 436.258C327.039 434.597 323.687 433.874 320.351 434.19L321.88 450.392ZM239.733 12V93.3343H272.267V12H239.733ZM304.8 77.0675H207.2V109.601H304.8V77.0675ZM500 272.27C500 220.499 479.434 170.848 442.827 134.241C406.22 97.6334 356.57 77.0675 304.8 77.0675V109.601C326.162 109.601 347.314 113.809 367.05 121.984C386.785 130.158 404.718 142.141 419.823 157.246C434.928 172.351 446.909 190.283 455.084 210.019C463.259 229.755 467.466 250.908 467.466 272.27H500ZM441.635 411.482C460.147 393.329 474.845 371.661 484.868 347.749C494.891 323.837 500.035 298.164 500 272.237H467.466C467.503 293.846 463.218 315.244 454.866 335.173C446.513 355.102 434.261 373.16 418.829 388.285L441.635 411.482ZM467.011 479.803L445.994 395.898L414.437 403.771L435.389 487.643L466.946 479.77L467.011 479.803ZM317.13 466.984L447.263 499.518L455.136 467.96L325.003 435.427L317.13 466.984ZM310.363 438.908L309.55 439.688L332.583 462.69L333.364 461.909L310.363 438.908ZM304.8 467.472C311.079 467.472 317.293 467.147 323.409 466.594L320.351 434.19C315.182 434.685 309.992 434.935 304.8 434.939V467.472ZM207.2 467.472H304.8V434.939H207.2V467.472ZM12 272.27C12 324.041 32.5656 373.691 69.1727 410.299C105.78 446.906 155.43 467.472 207.2 467.472V434.939C185.838 434.939 164.686 430.731 144.95 422.556C125.214 414.381 107.282 402.399 92.1773 387.294C61.6714 356.788 44.5333 315.412 44.5333 272.27H12ZM207.2 77.0675C155.43 77.0675 105.78 97.6334 69.1727 134.241C32.5656 170.848 12 220.499 12 272.27H44.5333C44.5333 229.127 61.6714 187.752 92.1773 157.246C122.683 126.739 164.058 109.601 207.2 109.601V77.0675ZM256 272.27C243.057 272.27 230.645 267.128 221.493 257.977C212.341 248.825 207.2 236.412 207.2 223.469H174.667C174.667 245.04 183.236 265.728 198.489 280.981C213.742 296.234 234.429 304.804 256 304.804V272.27ZM304.8 223.469C304.8 236.412 299.658 248.825 290.507 257.977C281.355 267.128 268.942 272.27 256 272.27V304.804C277.571 304.804 298.258 296.234 313.511 280.981C328.764 265.728 337.333 245.04 337.333 223.469H304.8ZM256 174.669C268.942 174.669 281.355 179.81 290.507 188.962C299.658 198.114 304.8 210.527 304.8 223.469H337.333C337.333 201.898 328.764 181.21 313.511 165.957C298.258 150.704 277.571 142.135 256 142.135V174.669ZM256 142.135C234.429 142.135 213.742 150.704 198.489 165.957C183.236 181.21 174.667 201.898 174.667 223.469H207.2C207.2 210.527 212.341 198.114 221.493 188.962C230.645 179.81 243.057 174.669 256 174.669V142.135ZM256 402.405C290.615 402.405 322.433 390.367 347.516 370.294L327.15 344.918C307.63 360.534 282.937 369.871 256 369.871V402.405ZM164.484 370.294C189.534 390.367 221.417 402.405 256 402.405V369.871C230.13 369.919 205.023 361.114 184.85 344.918L164.484 370.294Z" fill="#0AE361"/>
<path d="M214.282 312.9C214.282 297.381 217.747 283.52 224.678 271.316C231.759 258.961 241.327 249.394 253.38 242.614C265.584 235.683 279.219 232.218 294.286 232.218C311.914 232.218 327.357 236.738 340.616 245.778C353.875 254.818 363.141 267.323 368.414 283.294H332.028C328.412 275.761 323.289 270.111 316.66 266.344C310.181 262.577 302.648 260.694 294.06 260.694C284.869 260.694 276.658 262.879 269.426 267.248C262.345 271.467 256.77 277.493 252.702 285.328C248.785 293.163 246.826 302.353 246.826 312.9C246.826 323.296 248.785 332.487 252.702 340.472C256.77 348.307 262.345 354.409 269.426 358.778C276.658 362.997 284.869 365.106 294.06 365.106C302.648 365.106 310.181 363.223 316.66 359.456C323.289 355.539 328.412 349.813 332.028 342.28H368.414C363.141 358.401 353.875 370.982 340.616 380.022C327.508 388.911 312.065 393.356 294.286 393.356C279.219 393.356 265.584 389.966 253.38 383.186C241.327 376.255 231.759 366.688 224.678 354.484C217.747 342.28 214.282 328.419 214.282 312.9Z" fill="#0DA64A"/>
<path d="M222.625 321.243C222.625 305.725 226.091 291.863 233.021 279.659C240.103 267.305 249.67 257.737 261.723 250.957C273.927 244.027 287.563 240.561 302.629 240.561C320.257 240.561 335.701 245.081 348.959 254.121C362.218 263.161 371.484 275.667 376.757 291.637H340.371C336.755 284.104 331.633 278.454 325.003 274.687C318.525 270.921 310.991 269.037 302.403 269.037C293.213 269.037 285.001 271.222 277.769 275.591C270.688 279.81 265.113 285.837 261.045 293.671C257.128 301.506 255.169 310.697 255.169 321.243C255.169 331.639 257.128 340.83 261.045 348.815C265.113 356.65 270.688 362.752 277.769 367.121C285.001 371.34 293.213 373.449 302.403 373.449C310.991 373.449 318.525 371.566 325.003 367.799C331.633 363.882 336.755 358.157 340.371 350.623H376.757C371.484 366.745 362.218 379.325 348.959 388.365C335.851 397.255 320.408 401.699 302.629 401.699C287.563 401.699 273.927 398.309 261.723 391.529C249.67 384.599 240.103 375.031 233.021 362.827C226.091 350.623 222.625 336.762 222.625 321.243Z" fill="#68EF85"/>
<path d="M272.558 106.252V264H240.918V196.878H173.344V264H141.704V106.252H173.344V171.114H240.918V106.252H272.558Z" fill="#0DA64A"/>
<path d="M280.902 114.595V272.343H249.262V205.221H181.688V272.343H150.048V114.595H181.688V179.457H249.262V114.595H280.902Z" fill="#68EF85"/>
</svg>
